#!OML:ASF E:\Steps\Project 1\Capture day 1\Session 2\Subject.ASF
:FULLY-SPECIFIED
:DEGREES
481
root 9.34327 16.1975 23.3495 -155.058 -2.2087 177.572
lowerback -27.4905 -1.78485 -5.46876
upperback -2.05521 -1.25707 -0.450068
thorax 13.1132 -1.15018 2.09851
lowerneck 2.01951 -3.01606 -0.871085
upperneck -9.87065 -4.23843 2.14513
head -3.46771 -2.29123 1.01279
rclavicle 8.44835e-015 6.16232e-015
rhumerus -33.0886 -15.9156 -81.5172
rradius 30.0189
rwrist 1.01181
rhand -8.50149 -52.7444
rfingers 7.12502
rthumb 17.4263 -81.9833
lclavicle 8.44835e-015 6.16232e-015
lhumerus -29.8014 3.86976 82.8897
lradius 20.6445
lwrist -7.40865
lhand -21.0041 -10.9124
lfingers 7.12502
lthumb 5.37035 18.9996
rfemur -24.3093 8.8773 18.7955
rtibia 16.9417
rfoot -24.3396 -6.6074
rtoes -19.1475
lfemur -26.7002 -11.7664 -19.6668
ltibia 21.1523
lfoot -15.3155 4.62918
ltoes -36.8579
482
root 9.34179 16.198 23.3459 -155.107 -2.26966 177.579
lowerback -27.2127 -1.85185 -5.59838
upperback -2.21472 -1.35451 -0.379931
thorax 12.7884 -1.20172 2.22401
lowerneck 2.25327 -2.98956 -0.843125
upperneck -9.92802 -4.19687 2.13377
head -3.53415 -2.2693 1.00989
rclavicle 2.28602e-015 -1.19271e-015
rhumerus -33.3441 -15.7712 -81.3996
rradius 29.9261
rwrist 0.862412
rhand -8.41331 -52.9535
rfingers 7.12502
rthumb 17.5111 -82.1848
lclavicle 2.28602e-015 -1.19271e-015
lhumerus -30.0458 4.28342 82.7465
lradius 20.4247
lwrist -7.27746
lhand -21.3855 -10.8822
lfingers 7.12502
lthumb 5.00215 19.0388
rfemur -24.2492 8.75478 18.8326
rtibia 16.9617
rfoot -24.3164 -6.57541
rtoes -19.0761
lfemur -26.6399 -11.766 -19.6608
ltibia 21.1489
lfoot -15.2918 4.63473
ltoes -37.3584
483
root 9.33805 16.1971 23.34 -155.142 -2.28246 177.521
lowerback -27.2926 -1.8333 -5.62244
upperback -2.14103 -1.29787 -0.453461
thorax 12.9119 -1.17553 2.1723
lowerneck 2.22711 -3.04885 -0.864889
upperneck -10.0706 -4.27694 2.27098
head -3.57427 -2.31907 1.06418
rclavicle -5.71506e-015 -1.23246e-014
rhumerus -33.3122 -15.8962 -81.431
rradius 29.8645
rwrist 0.842698
rhand -8.31412 -53.1075
rfingers 7.12502
rthumb 17.6066 -82.3303
lclavicle -5.71506e-015 -1.23246e-014
lhumerus -29.8279 4.75995 82.4262
lradius 20.0813
lwrist -7.68073
lhand -21.3849 -11.0316
lfingers 7.12502
lthumb 5.00269 18.8893
rfemur -24.2111 8.73009 18.7598
rtibia 17.0074
rfoot -24.3043 -6.62338
rtoes -19.1804
lfemur -26.557 -11.7339 -19.7704
ltibia 21.1034
lfoot -15.1271 4.71841
ltoes -38.9076
484
root 9.33296 16.1965 23.3341 -155.141 -2.24326 177.464
lowerback -27.386 -1.7929 -5.59426
upperback -2.09784 -1.23223 -0.546557
thorax 13.0046 -1.14297 2.07128
lowerneck 2.19428 -3.10726 -0.907893
upperneck -10.1253 -4.35084 2.41534
head -3.58173 -2.36271 1.12208
rclavicle 5.41688e-015 9.93923e-016
rhumerus -33.3895 -15.9325 -81.4904
rradius 29.9098
rwrist 0.782085
rhand -8.32781 -53.0947
rfingers 7.12502
rthumb 17.5934 -82.3187
lclavicle 5.41688e-015 9.93923e-016
lhumerus -29.5617 5.28623 82.0894
lradius 19.652
lwrist -7.95482
lhand -21.3398 -11.249
lfingers 7.12502
lthumb 5.04625 18.6709
rfemur -24.1955 8.81929 18.647
rtibia 17.0375
rfoot -24.3387 -6.67426
rtoes -19.1007
lfemur -26.5044 -11.7124 -19.8871
ltibia 21.072
lfoot -14.99 4.73162
ltoes -39.4127
485
root 9.32845 16.1965 23.3279 -155.157 -2.20428 177.464
lowerback -27.3617 -1.7691 -5.58805
upperback -2.14069 -1.20988 -0.574466
thorax 12.9382 -1.13248 2.04486
lowerneck 2.25211 -3.09325 -0.923895
upperneck -10.0883 -4.32376 2.46449
head -3.57902 -2.3487 1.1406
rclavicle -5.51627e-015 2.78299e-015
rhumerus -33.5766 -16.097 -81.4154
rradius 29.8966
rwrist 0.831656
rhand -8.40921 -52.8757
rfingers 7.12502
rthumb 17.5151 -82.1067
lclavicle -5.51627e-015 2.78299e-015
lhumerus -29.5274 5.65415 81.8915
lradius 19.405
lwrist -7.8412
lhand -21.3152 -11.488
lfingers 7.12502
lthumb 5.07002 18.4313
rfemur -24.1555 8.86308 18.6184
rtibia 17.041
rfoot -24.3886 -6.67143
rtoes -19.3253
lfemur -26.4252 -11.6878 -19.9299
ltibia 21.0281
lfoot -15.0824 4.60267
ltoes -38.2136
